<svg xmlns="http://www.w3.org/2000/svg" fill="none" viewBox="0 0 24 24" id="Autoit--Streamline-Svg-Logos" height="24" width="24">
  <desc>
    Autoit Streamline Icon: https://streamlinehq.com
  </desc>
  <path fill="#5d83ac" d="M12 22.5337c5.8176 0 10.5337 -4.7161 10.5337 -10.5337S17.8176 1.4663075 12 1.4663075 1.4663075 6.1824 1.4663075 12C1.4663075 17.8176 6.1824 22.5337 12 22.5337Z" stroke-width="0.25"></path>
  <path fill="#f0f0f0" d="M0.25 12C0.25 5.51065 5.51065 0.25 12 0.25s11.75 5.26065 11.75 11.75 -5.26065 11.75 -11.75 11.75S0.25 18.48935 0.25 12Zm11.75 -9.409175c-5.19655 0 -9.409175 4.212625 -9.409175 9.409175 0 5.19655 4.212625 9.409175 9.409175 9.409175 5.19655 0 9.409175 -4.212625 9.409175 -9.409175 0 -5.19655 -4.212625 -9.409175 -9.409175 -9.409175Z" stroke-width="0.25"></path>
  <path fill="#f0f0f0" d="M19.1977 15.488325 13.82575 7.713125c-0.188575 -0.2741 -0.417675 -0.5032 -0.68755 -0.68755 -0.269875 -0.18415 -0.60625 -0.2763 -1.00885 -0.2763 -0.4199 0 -0.7669 0.098575 -1.040975 0.295575 -0.274325 0.197175 -0.501225 0.419875 -0.681125 0.668275L4.893925 15.488325h3.148625l4.0354 -5.7061 1.542175 2.274725c0.145575 0.205625 0.2976 0.426325 0.456225 0.661875 0.158425 0.23575 0.2976 0.430525 0.417675 0.58475 -0.205625 -0.017075 -0.4478 -0.025725 -0.7261 -0.025725H10.80565l-1.60645 2.210475h9.9985Z" stroke-width="0.25"></path>
</svg>